{
DisplayStrings = (
"HPHRH/R.alt H",
HLHFH,
L,
TL,
I,
HLHFHTH
);
classes = (
{
automatic = 1;
code = "A B C D E F G H I J K L M N O P Q R S T U V W X Y Z R.alt";
name = Uppercase;
}
);
copyright = AoifeMooney;
date = "2015-02-12 02:21:12 +0000";
designer = "Aoife Mooney";
designerURL = www.aoifemooney.org;
familyName = "Mercury";
featurePrefixes = (
{
automatic = 1;
code = "languagesystem DFLT dflt;\012languagesystem latn dflt;\012";
name = Languagesystems;
}
);
features = (
{
code = "sub R by R.alt;\012sub Q by Q.alt;\012sub G by G.alt;\012sub A by A.alt;";
name = ss01;
}
);
fontMaster = (
{
ascender = 800;
capHeight = 700;
descender = "-200";
guideLines = (
{
position = "{502, 538}";
},
{
position = "{562, -38}";
}
);
id = "B29C398E-974A-40D0-A0A0-00935056D4B4";
weight = Light;
width = Extended;
xHeight = 500;
}
);
glyphs = (
{
color = 6;
glyphname = A;
lastChange = "2015-02-15 00:31:06 +0000";
layers = (
{
background = {
paths = (
{
closed = 1;
nodes = (
"164 0 LINE",
"512 495 LINE",
"863 0 LINE",
"876 25 LINE",
"512 537 LINE",
"152 25 LINE"
);
},
{
closed = 1;
nodes = (
"720 216 LINE",
"300 216 LINE",
"282 190 LINE",
"738 190 LINE"
);
},
{
closed = 1;
nodes = (
"330 -1 LINE",
"330 25 LINE",
"-26 25 LINE",
"-26 -1 LINE"
);
},
{
closed = 1;
nodes = (
"697 25 LINE",
"697 -1 LINE",
"1049 -1 LINE",
"1050 25 LINE"
);
}
);
};
layerId = "B29C398E-974A-40D0-A0A0-00935056D4B4";
name = "Light Extended";
paths = (
{
closed = 1;
nodes = (
"167 13 LINE",
"511 500 LINE",
"855 13 LINE",
"888 13 LINE",
"512 545 LINE",
"136 13 LINE"
);
},
{
closed = 1;
nodes = (
"1049 0 LINE",
"1049 25 LINE",
"697 25 LINE",
"697 0 LINE"
);
},
{
closed = 1;
nodes = (
"327 0 LINE",
"327 25 LINE",
"-25 25 LINE",
"-25 0 LINE"
);
},
{
closed = 1;
nodes = (
"720 216 LINE",
"300 216 LINE",
"282 190 LINE",
"738 190 LINE"
);
}
);
width = 1024;
}
);
unicode = 0041;
},
{
color = 6;
glyphname = B;
lastChange = "2015-02-15 01:05:13 +0000";
layers = (
{
background = {
paths = (
{
closed = 1;
nodes = (
"301 13 LINE",
"301 487 LINE",
"276 487 LINE",
"276 13 LINE"
);
},
{
closed = 1;
nodes = (
"730 250 LINE",
"806 250 OFFCURVE",
"878 297 OFFCURVE",
"878 376 CURVE SMOOTH",
"878 447 OFFCURVE",
"826 500 OFFCURVE",
"711 500 CURVE",
"90 500 LINE",
"90 475 LINE",
"711 475 LINE",
"812 475 OFFCURVE",
"852 429 OFFCURVE",
"852 376 CURVE SMOOTH",
"852 321 OFFCURVE",
"798 266 OFFCURVE",
"701 266 CURVE",
"292 267 LINE",
"292 242 LINE",
"702 241 LINE",
"809 241 OFFCURVE",
"892 212 OFFCURVE",
"892 135 CURVE SMOOTH",
"892 59 OFFCURVE",
"819 25 OFFCURVE",
"731 25 CURVE",
"90 25 LINE",
"90 0 LINE",
"731 0 LINE",
"843 0 OFFCURVE",
"918 49 OFFCURVE",
"918 135 CURVE SMOOTH",
"918 219 OFFCURVE",
"838 259 OFFCURVE",
"730 259 CURVE"
);
}
);
};
layerId = "B29C398E-974A-40D0-A0A0-00935056D4B4";
name = "Light Extended";
paths = (
{
closed = 1;
nodes = (
"304 14 LINE",
"304 487 LINE",
"279 487 LINE",
"279 14 LINE"
);
},
{
closed = 1;
nodes = (
"713 252 LINE",
"827 252 OFFCURVE",
"881 308 OFFCURVE",
"881 372 CURVE SMOOTH",
"881 452 OFFCURVE",
"820 500 OFFCURVE",
"715 500 CURVE",
"93 500 LINE",
"93 475 LINE",
"715 475 LINE",
"806 475 OFFCURVE",
"855 434 OFFCURVE",
"855 372 CURVE SMOOTH",
"855 312 OFFCURVE",
"797 269 OFFCURVE",
"705 269 CURVE",
"295 270 LINE",
"295 245 LINE",
"705 244 LINE",
"807 244 OFFCURVE",
"890 210 OFFCURVE",
"890 134 CURVE SMOOTH",
"890 68 OFFCURVE",
"826 26 OFFCURVE",
"720 26 CURVE",
"93 26 LINE",
"93 0 LINE",
"715 0 LINE",
"850 0 OFFCURVE",
"916 56 OFFCURVE",
"916 134 CURVE SMOOTH",
"916 213 OFFCURVE",
"846 261 OFFCURVE",
"713 261 CURVE"
);
}
);
width = 1003;
}
);
unicode = 0042;
},
{
color = 6;
glyphname = C;
lastChange = "2015-02-14 23:28:29 +0000";
layers = (
{
background = {
paths = (
{
closed = 1;
nodes = (
"828 293 LINE",
"851 300 LINE",
"851 301 OFFCURVE",
"819 354 OFFCURVE",
"753 408 CURVE SMOOTH",
"688 462 OFFCURVE",
"588 516 OFFCURVE",
"456 516 CURVE SMOOTH",
"331 516 OFFCURVE",
"237 480 OFFCURVE",
"174 425 CURVE SMOOTH",
"111 370 OFFCURVE",
"80 298 OFFCURVE",
"80 227 CURVE SMOOTH",
"80 155 OFFCURVE",
"111 84 OFFCURVE",
"174 31 CURVE SMOOTH",
"236 -22 OFFCURVE",
"330 -57 OFFCURVE",
"454 -57 CURVE SMOOTH",
"614 -57 OFFCURVE",
"714 -2 OFFCURVE",
"774 53 CURVE SMOOTH",
"828 102 OFFCURVE",
"850 158 OFFCURVE",
"853 166 CURVE",
"828 174 LINE",
"826 166 OFFCURVE",
"807 119 OFFCURVE",
"755 71 CURVE SMOOTH",
"700 21 OFFCURVE",
"607 -31 OFFCURVE",
"454 -31 CURVE SMOOTH",
"335 -31 OFFCURVE",
"247 2 OFFCURVE",
"191 50 CURVE SMOOTH",
"133 99 OFFCURVE",
"106 162 OFFCURVE",
"106 227 CURVE SMOOTH",
"106 291 OFFCURVE",
"133 356 OFFCURVE",
"191 406 CURVE SMOOTH",
"248 456 OFFCURVE",
"336 490 OFFCURVE",
"456 490 CURVE SMOOTH",
"581 490 OFFCURVE",
"674 439 OFFCURVE",
"737 388 CURVE SMOOTH",
"788 346 OFFCURVE",
"819 309 OFFCURVE",
"853 247 CURVE",
"853 500 LINE",
"828 500 LINE"
);
}
);
};
layerId = "B29C398E-974A-40D0-A0A0-00935056D4B4";
name = "Light Extended";
paths = (
{
closed = 1;
nodes = (
"270 513 OFFCURVE",
"106 414 OFFCURVE",
"106 250 CURVE",
"106 86 OFFCURVE",
"265 -13 OFFCURVE",
"458 -13 CURVE",
"667 -13 OFFCURVE",
"794 101 OFFCURVE",
"827 193 CURVE",
"853 185 LINE",
"814 80 OFFCURVE",
"687 -38 OFFCURVE",
"458 -38 CURVE",
"254 -38 OFFCURVE",
"80 67 OFFCURVE",
"80 250 CURVE",
"80 433 OFFCURVE",
"262 538 OFFCURVE",
"466 538 CURVE",
"647 538 OFFCURVE",
"768 461 OFFCURVE",
"842 373 CURVE",
"821 373 LINE",
"821 500 LINE",
"846 500 LINE",
"846 333 LINE",
"738 463 OFFCURVE",
"600 513 OFFCURVE",
"466 513 CURVE"
);
}
);
width = 938;
},
{
associatedMasterId = "B29C398E-974A-40D0-A0A0-00935056D4B4";
background = {
paths = (
{
closed = 1;
nodes = (
"1068 419 LINE",
"1102 429 LINE",
"1101 430 OFFCURVE",
"1055 506 OFFCURVE",
"961 583 CURVE SMOOTH",
"868 660 OFFCURVE",
"726 737 OFFCURVE",
"537 737 CURVE SMOOTH",
"358 737 OFFCURVE",
"224 685 OFFCURVE",
"134 607 CURVE SMOOTH",
"44 529 OFFCURVE",
"0 426 OFFCURVE",
"0 324 CURVE SMOOTH",
"0 222 OFFCURVE",
"44 120 OFFCURVE",
"134 44 CURVE SMOOTH",
"223 -32 OFFCURVE",
"357 -81 OFFCURVE",
"535 -81 CURVE SMOOTH",
"763 -82 OFFCURVE",
"905 -3 OFFCURVE",
"991 76 CURVE SMOOTH",
"1068 146 OFFCURVE",
"1100 225 OFFCURVE",
"1104 237 CURVE",
"1069 249 LINE",
"1065 237 OFFCURVE",
"1039 170 OFFCURVE",
"964 102 CURVE SMOOTH",
"885 30 OFFCURVE",
"753 -44 OFFCURVE",
"535 -45 CURVE SMOOTH",
"364 -45 OFFCURVE",
"239 3 OFFCURVE",
"158 72 CURVE SMOOTH",
"76 141 OFFCURVE",
"37 232 OFFCURVE",
"37 324 CURVE SMOOTH",
"37 415 OFFCURVE",
"76 508 OFFCURVE",
"158 580 CURVE SMOOTH",
"240 651 OFFCURVE",
"365 700 OFFCURVE",
"537 700 CURVE SMOOTH",
"716 700 OFFCURVE",
"849 627 OFFCURVE",
"938 554 CURVE SMOOTH",
"1012 494 OFFCURVE",
"1055 441 OFFCURVE",
"1104 353 CURVE",
"1104 700 LINE",
"1068 700 LINE"
);
}
);
};
layerId = "4CE72ED2-500C-4544-8864-BE0CB7E60B06";
name = Background;
paths = (
{
closed = 1;
nodes = (
"1068 432 LINE",
"1102 429 LINE",
"978 642 OFFCURVE",
"778 737 OFFCURVE",
"537 737 CURVE SMOOTH",
"358 737 OFFCURVE",
"224 685 OFFCURVE",
"134 607 CURVE SMOOTH",
"44 529 OFFCURVE",
"0 426 OFFCURVE",
"0 324 CURVE SMOOTH",
"0 222 OFFCURVE",
"44 120 OFFCURVE",
"134 44 CURVE SMOOTH",
"223 -32 OFFCURVE",
"357 -81 OFFCURVE",
"535 -81 CURVE SMOOTH",
"763 -82 OFFCURVE",
"905 -3 OFFCURVE",
"991 76 CURVE SMOOTH",
"1068 146 OFFCURVE",
"1100 225 OFFCURVE",
"1104 237 CURVE",
"1069 249 LINE",
"1065 237 OFFCURVE",
"1039 170 OFFCURVE",
"964 102 CURVE SMOOTH",
"885 30 OFFCURVE",
"753 -44 OFFCURVE",
"535 -45 CURVE SMOOTH",
"364 -45 OFFCURVE",
"239 3 OFFCURVE",
"158 72 CURVE SMOOTH",
"76 141 OFFCURVE",
"37 232 OFFCURVE",
"37 324 CURVE SMOOTH",
"37 415 OFFCURVE",
"76 508 OFFCURVE",
"158 580 CURVE SMOOTH",
"240 651 OFFCURVE",
"365 700 OFFCURVE",
"537 700 CURVE SMOOTH",
"773 700 OFFCURVE",
"981 598 OFFCURVE",
"1104 353 CURVE",
"1104 700 LINE",
"1068 700 LINE"
);
}
);
width = 1184;
}
);
unicode = 0043;
},
{
color = 6;
glyphname = D;
lastChange = "2015-02-14 22:59:39 +0000";
layers = (
{
layerId = "B29C398E-974A-40D0-A0A0-00935056D4B4";
name = "Light Extended";
paths = (
{
closed = 1;
nodes = (
"90 500 LINE",
"90 475 LINE",
"589 475 LINE",
"787 475 OFFCURVE",
"914 394 OFFCURVE",
"914 250 CURVE",
"914 106 OFFCURVE",
"787 25 OFFCURVE",
"589 25 CURVE",
"90 25 LINE",
"90 0 LINE",
"589 0 LINE",
"798 0 OFFCURVE",
"940 87 OFFCURVE",
"940 250 CURVE",
"940 413 OFFCURVE",
"798 500 OFFCURVE",
"589 500 CURVE"
);
},
{
closed = 1;
nodes = (
"276 487 LINE",
"276 13 LINE",
"301 13 LINE",
"301 487 LINE"
);
}
);
width = 1025;
}
);
unicode = 0044;
},
{
color = 6;
glyphname = E;
lastChange = "2015-02-14 23:56:47 +0000";
layers = (
{
background = {
paths = (
{
closed = 1;
nodes = (
"1283 10 LINE",
"1283 270 LINE",
"1246 270 LINE",
"1246 47 LINE",
"128 47 LINE",
"128 10 LINE"
);
},
{
closed = 1;
nodes = (
"425 36 LINE",
"425 684 LINE",
"389 684 LINE",
"389 36 LINE"
);
},
{
closed = 1;
nodes = (
"878 372 LINE",
"878 409 LINE",
"407 409 LINE",
"407 372 LINE"
);
},
{
closed = 1;
nodes = (
"897 206 LINE",
"897 557 LINE",
"860 557 LINE",
"860 206 LINE"
);
},
{
closed = 1;
nodes = (
"1248 663 LINE",
"1248 447 LINE",
"1285 447 LINE",
"1285 700 LINE",
"133 700 LINE",
"132 663 LINE"
);
}
);
};
layerId = "B29C398E-974A-40D0-A0A0-00935056D4B4";
name = "Light Extended";
paths = (
{
closed = 1;
nodes = (
"913 0 LINE",
"913 189 LINE",
"888 189 LINE",
"888 25 LINE",
"90 25 LINE",
"90 0 LINE"
);
},
{
closed = 1;
nodes = (
"628 250 LINE",
"628 276 LINE",
"298 276 LINE",
"298 250 LINE"
);
},
{
closed = 1;
nodes = (
"641 134 LINE",
"641 380 LINE",
"616 380 LINE",
"616 134 LINE"
);
},
{
closed = 1;
nodes = (
"887 475 LINE",
"887 313 LINE",
"912 313 LINE",
"912 500 LINE",
"90 500 LINE",
"90 475 LINE"
);
},
{
closed = 1;
nodes = (
"301 13 LINE",
"301 487 LINE",
"276 487 LINE",
"276 13 LINE"
);
}
);
width = 1003;
}
);
unicode = 0045;
},
{
color = 6;
glyphname = F;
lastChange = "2015-02-15 01:36:29 +0000";
layers = (
{
layerId = "B29C398E-974A-40D0-A0A0-00935056D4B4";
name = "Light Extended";
paths = (
{
closed = 1;
nodes = (
"648 230 LINE",
"648 255 LINE",
"298 255 LINE",
"298 230 LINE"
);
},
{
closed = 1;
nodes = (
"661 114 LINE",
"661 360 LINE",
"636 360 LINE",
"636 114 LINE"
);
},
{
closed = 1;
nodes = (
"301 13 LINE",
"301 487 LINE",
"276 487 LINE",
"276 13 LINE"
);
},
{
closed = 1;
nodes = (
"497 0 LINE",
"497 25 LINE",
"90 25 LINE",
"90 0 LINE"
);
},
{
closed = 1;
nodes = (
"888 475 LINE",
"888 313 LINE",
"913 313 LINE",
"913 500 LINE",
"90 500 LINE",
"90 475 LINE"
);
}
);
width = 983;
}
);
unicode = 0046;
},
{
color = 6;
glyphname = G;
lastChange = "2015-02-14 23:28:29 +0000";
layers = (
{
background = {
paths = (
{
closed = 1;
nodes = (
"818 363 LINE",
"841 365 LINE",
"738 467 OFFCURVE",
"621 516 OFFCURVE",
"466 516 CURVE SMOOTH",
"341 516 OFFCURVE",
"237 480 OFFCURVE",
"174 425 CURVE SMOOTH",
"111 370 OFFCURVE",
"80 298 OFFCURVE",
"80 227 CURVE SMOOTH",
"80 155 OFFCURVE",
"111 84 OFFCURVE",
"174 31 CURVE SMOOTH",
"236 -22 OFFCURVE",
"340 -57 OFFCURVE",
"464 -57 CURVE SMOOTH",
"624 -57 OFFCURVE",
"703 -20 OFFCURVE",
"768 29 CURVE SMOOTH",
"832 78 OFFCURVE",
"863 158 OFFCURVE",
"863 206 CURVE",
"831 206 LINE",
"831 170 OFFCURVE",
"811 95 OFFCURVE",
"749 47 CURVE SMOOTH",
"690 1 OFFCURVE",
"617 -31 OFFCURVE",
"464 -31 CURVE SMOOTH",
"345 -31 OFFCURVE",
"247 2 OFFCURVE",
"191 50 CURVE SMOOTH",
"133 99 OFFCURVE",
"106 162 OFFCURVE",
"106 227 CURVE SMOOTH",
"106 291 OFFCURVE",
"133 356 OFFCURVE",
"191 406 CURVE SMOOTH",
"248 456 OFFCURVE",
"346 490 OFFCURVE",
"466 490 CURVE SMOOTH",
"590 490 OFFCURVE",
"721 461 OFFCURVE",
"843 330 CURVE",
"843 500 LINE",
"818 500 LINE"
);
},
{
closed = 1;
nodes = (
"863 225 LINE",
"453 225 LINE",
"453 200 LINE",
"863 200 LINE"
);
}
);
};
layerId = "B29C398E-974A-40D0-A0A0-00935056D4B4";
name = "Light Extended";
paths = (
{
closed = 1;
nodes = (
"262 538 OFFCURVE",
"80 433 OFFCURVE",
"80 250 CURVE",
"80 67 OFFCURVE",
"254 -38 OFFCURVE",
"458 -38 CURVE",
"717 -38 OFFCURVE",
"839 90 OFFCURVE",
"853 225 CURVE",
"827 225 LINE",
"815 103 OFFCURVE",
"697 -13 OFFCURVE",
"458 -13 CURVE",
"265 -13 OFFCURVE",
"106 86 OFFCURVE",
"106 250 CURVE",
"106 414 OFFCURVE",
"270 513 OFFCURVE",
"466 513 CURVE",
"600 513 OFFCURVE",
"735 463 OFFCURVE",
"843 343 CURVE",
"843 500 LINE",
"818 500 LINE",
"818 383 LINE",
"839 383 LINE",
"765 461 OFFCURVE",
"647 538 OFFCURVE",
"466 538 CURVE"
);
},
{
closed = 1;
nodes = (
"453 240 LINE",
"453 215 LINE",
"853 215 LINE",
"853 240 LINE"
);
}
);
width = 938;
}
);
unicode = 0047;
},
{
color = 6;
glyphname = H;
lastChange = "2015-02-14 22:53:52 +0000";
layers = (
{
layerId = "B29C398E-974A-40D0-A0A0-00935056D4B4";
name = "Light Extended";
paths = (
{
closed = 1;
nodes = (
"301 11 LINE",
"301 487 LINE",
"276 487 LINE",
"276 11 LINE"
);
},
{
closed = 1;
nodes = (
"443 475 LINE",
"443 500 LINE",
"90 500 LINE",
"90 475 LINE"
);
},
{
closed = 1;
nodes = (
"926 256 LINE",
"296 256 LINE",
"296 231 LINE",
"926 231 LINE"
);
},
{
closed = 1;
nodes = (
"443 0 LINE",
"443 25 LINE",
"90 25 LINE",
"90 0 LINE"
);
},
{
closed = 1;
nodes = (
"919 489 LINE",
"919 13 LINE",
"944 13 LINE",
"944 489 LINE"
);
},
{
closed = 1;
nodes = (
"777 25 LINE",
"777 0 LINE",
"1130 0 LINE",
"1130 25 LINE"
);
},
{
closed = 1;
nodes = (
"777 500 LINE",
"777 475 LINE",
"1130 475 LINE",
"1130 500 LINE"
);
}
);
width = 1220;
}
);
unicode = 0048;
},
{
color = 6;
glyphname = I;
lastChange = "2015-02-15 00:11:55 +0000";
layers = (
{
layerId = "B29C398E-974A-40D0-A0A0-00935056D4B4";
name = "Light Extended";
paths = (
{
closed = 1;
nodes = (
"507 0 LINE",
"507 25 LINE",
"90 25 LINE",
"90 0 LINE"
);
},
{
closed = 1;
nodes = (
"286 487 LINE",
"286 13 LINE",
"311 13 LINE",
"311 487 LINE"
);
},
{
closed = 1;
nodes = (
"90 500 LINE",
"90 475 LINE",
"507 475 LINE",
"507 500 LINE"
);
}
);
width = 597;
}
);
unicode = 0049;
},
{
color = 6;
glyphname = J;
lastChange = "2015-02-15 00:20:58 +0000";
layers = (
{
layerId = "B29C398E-974A-40D0-A0A0-00935056D4B4";
name = "Light Extended";
paths = (
{
closed = 1;
nodes = (
"635 475 LINE",
"635 500 LINE",
"193 500 LINE",
"193 475 LINE"
);
},
{
closed = 1;
nodes = (
"443 45 OFFCURVE",
"344 -13 OFFCURVE",
"234 -13 CURVE SMOOTH",
"125 -13 OFFCURVE",
"43 40 OFFCURVE",
"12 114 CURVE",
"-10 104 LINE",
"18 23 OFFCURVE",
"106 -38 OFFCURVE",
"234 -38 CURVE SMOOTH",
"375 -38 OFFCURVE",
"469 39 OFFCURVE",
"469 165 CURVE SMOOTH",
"469 487 LINE",
"443 487 LINE",
"443 165 LINE SMOOTH"
);
}
);
width = 695;
}
);
unicode = 004A;
},
{
color = 6;
glyphname = L;
lastChange = "2015-02-15 01:33:13 +0000";
layers = (
{
layerId = "B29C398E-974A-40D0-A0A0-00935056D4B4";
name = "Light Extended";
paths = (
{
closed = 1;
nodes = (
"276 13 LINE",
"301 13 LINE",
"301 487 LINE",
"276 487 LINE"
);
},
{
closed = 1;
nodes = (
"90 475 LINE",
"497 475 LINE",
"497 500 LINE",
"90 500 LINE"
);
},
{
closed = 1;
nodes = (
"852 0 LINE",
"852 229 LINE",
"827 229 LINE",
"827 25 LINE",
"90 25 LINE",
"90 0 LINE"
);
}
);
width = 882;
}
);
unicode = 004C;
},
{
color = 6;
glyphname = M;
lastChange = "2015-02-14 22:57:25 +0000";
layers = (
{
layerId = "B29C398E-974A-40D0-A0A0-00935056D4B4";
name = "Light Extended";
paths = (
{
closed = 1;
nodes = (
"1041 500 LINE",
"671 0 LINE",
"301 500 LINE",
"270 500 LINE",
"671 -39 LINE",
"1072 500 LINE"
);
},
{
closed = 1;
nodes = (
"90 24 LINE",
"90 -1 LINE",
"443 -1 LINE",
"443 24 LINE"
);
},
{
closed = 1;
nodes = (
"276 487 LINE",
"276 11 LINE",
"301 11 LINE",
"301 487 LINE"
);
},
{
closed = 1;
nodes = (
"90 500 LINE",
"90 475 LINE",
"301 475 LINE",
"301 500 LINE"
);
},
{
closed = 1;
nodes = (
"899 24 LINE",
"899 -1 LINE",
"1252 -1 LINE",
"1252 24 LINE"
);
},
{
closed = 1;
nodes = (
"1041 487 LINE",
"1041 11 LINE",
"1066 11 LINE",
"1066 487 LINE"
);
},
{
closed = 1;
nodes = (
"1041 500 LINE",
"1041 475 LINE",
"1252 475 LINE",
"1252 500 LINE"
);
}
);
width = 1342;
}
);
unicode = 004D;
},
{
color = 6;
glyphname = N;
lastChange = "2015-02-14 22:58:44 +0000";
layers = (
{
background = {
paths = (
{
closed = 1;
nodes = (
"616 8 LINE",
"616 45 LINE",
"108 45 LINE",
"108 8 LINE"
);
},
{
closed = 1;
nodes = (
"414 26 LINE",
"414 682 LINE",
"378 682 LINE",
"378 26 LINE"
);
},
{
closed = 1;
nodes = (
"1475 700 LINE",
"942 17 LINE",
"405 700 LINE",
"108 700 LINE",
"108 664 LINE",
"387 664 LINE",
"942 -43 LINE",
"1493 664 LINE",
"1775 664 LINE",
"1774 700 LINE"
);
},
{
closed = 1;
nodes = (
"1269 45 LINE",
"1269 8 LINE",
"1772 8 LINE",
"1773 45 LINE"
);
},
{
closed = 1;
nodes = (
"1503 26 LINE",
"1503 682 LINE",
"1466 682 LINE",
"1466 26 LINE"
);
}
);
};
layerId = "B29C398E-974A-40D0-A0A0-00935056D4B4";
name = "Light Extended";
paths = (
{
closed = 1;
nodes = (
"443 -1 LINE",
"443 24 LINE",
"90 24 LINE",
"90 -1 LINE"
);
},
{
closed = 1;
nodes = (
"301 11 LINE",
"301 500 LINE",
"276 500 LINE",
"276 11 LINE"
);
},
{
closed = 1;
nodes = (
"256 500 LINE",
"973 -37 LINE",
"973 487 LINE",
"948 487 LINE",
"948 14 LINE",
"301 500 LINE"
);
},
{
closed = 1;
nodes = (
"807 500 LINE",
"807 475 LINE",
"1159 475 LINE",
"1159 500 LINE"
);
},
{
closed = 1;
nodes = (
"301 500 LINE",
"90 500 LINE",
"90 475 LINE",
"301 475 LINE"
);
}
);
width = 1229;
}
);
unicode = 004E;
},
{
color = 6;
glyphname = O;
lastChange = "2015-02-14 23:52:42 +0000";
layers = (
{
layerId = "B29C398E-974A-40D0-A0A0-00935056D4B4";
name = "Light Extended";
paths = (
{
closed = 1;
nodes = (
"257 -38 OFFCURVE",
"80 67 OFFCURVE",
"80 250 CURVE",
"80 433 OFFCURVE",
"257 538 OFFCURVE",
"471 538 CURVE",
"685 538 OFFCURVE",
"862 433 OFFCURVE",
"862 250 CURVE",
"862 67 OFFCURVE",
"685 -38 OFFCURVE",
"471 -38 CURVE"
);
},
{
closed = 1;
nodes = (
"268 513 OFFCURVE",
"106 414 OFFCURVE",
"106 250 CURVE",
"106 86 OFFCURVE",
"268 -13 OFFCURVE",
"471 -13 CURVE",
"674 -13 OFFCURVE",
"836 86 OFFCURVE",
"836 250 CURVE",
"836 414 OFFCURVE",
"674 513 OFFCURVE",
"471 513 CURVE"
);
}
);
width = 942;
}
);
unicode = 004F;
},
{
color = 6;
glyphname = P;
lastChange = "2015-02-15 01:24:58 +0000";
layers = (
{
layerId = "B29C398E-974A-40D0-A0A0-00935056D4B4";
name = "Light Extended";
paths = (
{
closed = 1;
nodes = (
"301 13 LINE",
"301 487 LINE",
"276 487 LINE",
"276 13 LINE"
);
},
{
closed = 1;
nodes = (
"497 0 LINE",
"497 25 LINE",
"90 25 LINE",
"90 0 LINE"
);
},
{
closed = 1;
nodes = (
"748 197 LINE",
"855 197 OFFCURVE",
"925 266 OFFCURVE",
"925 347 CURVE SMOOTH",
"925 438 OFFCURVE",
"853 500 OFFCURVE",
"748 500 CURVE",
"90 500 LINE",
"90 475 LINE",
"748 475 LINE",
"839 475 OFFCURVE",
"899 420 OFFCURVE",
"899 347 CURVE SMOOTH",
"899 276 OFFCURVE",
"836 222 OFFCURVE",
"748 222 CURVE",
"289 222 LINE",
"289 197 LINE"
);
}
);
width = 995;
}
);
unicode = 0050;
},
{
color = 6;
glyphname = Q;
lastChange = "2015-02-14 23:46:34 +0000";
layers = (
{
background = {
paths = (
{
closed = 1;
nodes = (
"126 124 LINE",
"126 99 LINE",
"340 99 LINE SMOOTH",
"393 99 OFFCURVE",
"429 80 OFFCURVE",
"464 34 CURVE SMOOTH",
"493 -2 OFFCURVE",
"516 -49 OFFCURVE",
"551 -88 CURVE SMOOTH",
"597 -138 OFFCURVE",
"645 -156 OFFCURVE",
"720 -156 CURVE SMOOTH",
"828 -156 OFFCURVE",
"914 -82 OFFCURVE",
"914 31 CURVE",
"889 31 LINE",
"889 -71 OFFCURVE",
"809 -131 OFFCURVE",
"720 -131 CURVE SMOOTH",
"628 -131 OFFCURVE",
"585 -96 OFFCURVE",
"541 -32 CURVE SMOOTH",
"517 2 OFFCURVE",
"496 40 OFFCURVE",
"466 72 CURVE SMOOTH",
"434 107 OFFCURVE",
"392 124 OFFCURVE",
"340 124 CURVE SMOOTH"
);
}
);
};
layerId = "B29C398E-974A-40D0-A0A0-00935056D4B4";
name = "Light Extended";
paths = (
{
closed = 1;
nodes = (
"257 538 OFFCURVE",
"80 433 OFFCURVE",
"80 250 CURVE",
"80 67 OFFCURVE",
"257 -38 OFFCURVE",
"471 -38 CURVE",
"685 -38 OFFCURVE",
"862 67 OFFCURVE",
"862 250 CURVE",
"862 433 OFFCURVE",
"685 538 OFFCURVE",
"471 538 CURVE"
);
},
{
closed = 1;
nodes = (
"105 194 LINE",
"105 169 LINE",
"190 169 LINE SMOOTH",
"358 169 OFFCURVE",
"419 111 OFFCURVE",
"504 8 CURVE SMOOTH",
"600 -108 OFFCURVE",
"663 -178 OFFCURVE",
"766 -178 CURVE SMOOTH",
"872 -178 OFFCURVE",
"942 -103 OFFCURVE",
"944 0 CURVE",
"919 0 LINE",
"917 -93 OFFCURVE",
"853 -153 OFFCURVE",
"766 -153 CURVE SMOOTH",
"676 -153 OFFCURVE",
"616 -85 OFFCURVE",
"533 14 CURVE SMOOTH",
"434 132 OFFCURVE",
"381 194 OFFCURVE",
"190 194 CURVE SMOOTH"
);
},
{
closed = 1;
nodes = (
"674 513 OFFCURVE",
"836 414 OFFCURVE",
"836 250 CURVE",
"836 86 OFFCURVE",
"674 -13 OFFCURVE",
"471 -13 CURVE",
"268 -13 OFFCURVE",
"106 86 OFFCURVE",
"106 250 CURVE",
"106 414 OFFCURVE",
"268 513 OFFCURVE",
"471 513 CURVE"
);
}
);
width = 934;
}
);
unicode = 0051;
},
{
color = 6;
glyphname = R;
lastChange = "2015-02-15 01:25:15 +0000";
layers = (
{
background = {
paths = (
{
closed = 1;
nodes = (
"467 216 LINE SMOOTH",
"633 216 OFFCURVE",
"721 148 OFFCURVE",
"817 47 CURVE SMOOTH",
"975 -119 OFFCURVE",
"1092 -227 OFFCURVE",
"1354 -227 CURVE SMOOTH",
"1505 -227 OFFCURVE",
"1633 -186 OFFCURVE",
"1728 -97 CURVE",
"1710 -78 LINE",
"1621 -161 OFFCURVE",
"1501 -201 OFFCURVE",
"1354 -201 CURVE SMOOTH",
"1157 -201 OFFCURVE",
"1024 -127 OFFCURVE",
"914 -17 CURVE SMOOTH",
"739 158 OFFCURVE",
"667 242 OFFCURVE",
"467 242 CURVE SMOOTH",
"388 242 LINE",
"388 216 LINE"
);
},
{
closed = 1;
nodes = (
"302 18 LINE",
"302 477 LINE",
"276 477 LINE",
"276 18 LINE"
);
},
{
closed = 1;
nodes = (
"498 5 LINE",
"498 31 LINE",
"87 31 LINE",
"87 5 LINE"
);
},
{
closed = 1;
nodes = (
"698 217 LINE",
"795 217 OFFCURVE",
"865 286 OFFCURVE",
"865 357 CURVE SMOOTH",
"865 438 OFFCURVE",
"803 500 OFFCURVE",
"698 500 CURVE",
"87 500 LINE",
"87 474 LINE",
"698 474 LINE",
"789 474 OFFCURVE",
"839 420 OFFCURVE",
"839 357 CURVE SMOOTH",
"839 296 OFFCURVE",
"776 242 OFFCURVE",
"698 242 CURVE",
"289 242 LINE",
"289 217 LINE"
);
}
);
};
layerId = "B29C398E-974A-40D0-A0A0-00935056D4B4";
name = "Light Extended";
paths = (
{
closed = 1;
nodes = (
"301 18 LINE",
"301 477 LINE",
"276 477 LINE",
"276 18 LINE"
);
},
{
closed = 1;
nodes = (
"498 0 LINE",
"498 25 LINE",
"90 25 LINE",
"90 0 LINE"
);
},
{
closed = 1;
nodes = (
"688 217 LINE",
"795 217 OFFCURVE",
"865 286 OFFCURVE",
"865 357 CURVE SMOOTH",
"865 438 OFFCURVE",
"803 500 OFFCURVE",
"698 500 CURVE",
"90 500 LINE",
"90 475 LINE",
"698 475 LINE",
"789 475 OFFCURVE",
"839 421 OFFCURVE",
"839 357 CURVE SMOOTH",
"839 296 OFFCURVE",
"776 242 OFFCURVE",
"688 242 CURVE",
"289 242 LINE",
"289 217 LINE"
);
},
{
closed = 1;
nodes = (
"341 237 LINE",
"341 217 LINE",
"430 217 LINE SMOOTH",
"596 217 OFFCURVE",
"643 162 OFFCURVE",
"797 6 CURVE SMOOTH",
"964 -163 OFFCURVE",
"1113 -267 OFFCURVE",
"1332 -267 CURVE SMOOTH",
"1503 -267 OFFCURVE",
"1626 -206 OFFCURVE",
"1731 -87 CURVE",
"1714 -69 LINE",
"1617 -179 OFFCURVE",
"1499 -242 OFFCURVE",
"1332 -242 CURVE SMOOTH",
"1134 -242 OFFCURVE",
"977 -137 OFFCURVE",
"833 7 CURVE SMOOTH",
"680 160 OFFCURVE",
"635 237 OFFCURVE",
"425 237 CURVE SMOOTH"
);
}
);
width = 991;
}
);
unicode = 0052;
},
{
glyphname = T;
lastChange = "2015-02-15 01:36:49 +0000";
layers = (
{
layerId = "B29C398E-974A-40D0-A0A0-00935056D4B4";
name = "Light Extended";
paths = (
{
closed = 1;
nodes = (
"620 0 LINE",
"620 25 LINE",
"203 25 LINE",
"203 0 LINE"
);
},
{
closed = 1;
nodes = (
"399 487 LINE",
"399 13 LINE",
"424 13 LINE",
"424 487 LINE"
);
},
{
closed = 1;
nodes = (
"55 500 LINE",
"55 313 LINE",
"80 313 LINE",
"80 475 LINE",
"743 475 LINE",
"743 313 LINE",
"768 313 LINE",
"768 500 LINE"
);
}
);
width = 823;
}
);
unicode = 0054;
},
{
color = 6;
glyphname = U;
lastChange = "2015-02-15 00:21:06 +0000";
layers = (
{
background = {
paths = (
{
closed = 1;
nodes = (
"1249 228 LINE SMOOTH",
"1249 190 OFFCURVE",
"1237 154 OFFCURVE",
"1213 122 CURVE SMOOTH",
"1179 73 OFFCURVE",
"1120 31 OFFCURVE",
"1046 2 CURVE SMOOTH",
"973 -27 OFFCURVE",
"886 -44 OFFCURVE",
"796 -44 CURVE SMOOTH",
"684 -44 OFFCURVE",
"573 -14 OFFCURVE",
"491 35 CURVE SMOOTH",
"450 59 OFFCURVE",
"416 89 OFFCURVE",
"393 122 CURVE SMOOTH",
"370 154 OFFCURVE",
"358 190 OFFCURVE",
"357 228 CURVE",
"357 682 LINE",
"321 682 LINE",
"321 228 LINE SMOOTH",
"321 181 OFFCURVE",
"336 138 OFFCURVE",
"363 100 CURVE SMOOTH",
"403 44 OFFCURVE",
"467 -1 OFFCURVE",
"543 -32 CURVE SMOOTH",
"620 -63 OFFCURVE",
"707 -81 OFFCURVE",
"796 -81 CURVE SMOOTH",
"922 -81 OFFCURVE",
"1042 -50 OFFCURVE",
"1133 3 CURVE SMOOTH",
"1178 30 OFFCURVE",
"1217 62 OFFCURVE",
"1243 100 CURVE SMOOTH",
"1271 138 OFFCURVE",
"1286 181 OFFCURVE",
"1286 228 CURVE SMOOTH",
"1286 682 LINE",
"1249 682 LINE"
);
},
{
closed = 1;
nodes = (
"640 663 LINE",
"640 700 LINE",
"18 700 LINE",
"18 663 LINE"
);
},
{
closed = 1;
nodes = (
"1586 663 LINE",
"1586 700 LINE",
"964 700 LINE",
"964 663 LINE"
);
}
);
};
layerId = "B29C398E-974A-40D0-A0A0-00935056D4B4";
name = "Light Extended";
paths = (
{
closed = 1;
nodes = (
"469 475 LINE",
"469 500 LINE",
"60 500 LINE",
"60 475 LINE"
);
},
{
closed = 1;
nodes = (
"750 -38 OFFCURVE",
"910 51 OFFCURVE",
"910 199 CURVE SMOOTH",
"910 487 LINE",
"885 487 LINE",
"885 199 LINE",
"881 66 OFFCURVE",
"742 -13 OFFCURVE",
"578 -13 CURVE",
"414 -13 OFFCURVE",
"275 66 OFFCURVE",
"271 199 CURVE",
"271 487 LINE",
"246 487 LINE",
"246 199 LINE SMOOTH",
"246 51 OFFCURVE",
"406 -38 OFFCURVE",
"578 -38 CURVE"
);
},
{
closed = 1;
nodes = (
"1096 500 LINE",
"687 500 LINE",
"687 475 LINE",
"1096 475 LINE"
);
}
);
width = 1156;
}
);
unicode = 0055;
},
{
color = 6;
glyphname = V;
lastChange = "2015-02-15 00:28:13 +0000";
layers = (
{
layerId = "B29C398E-974A-40D0-A0A0-00935056D4B4";
name = "Light Extended";
paths = (
{
closed = 1;
nodes = (
"857 487 LINE",
"513 0 LINE",
"169 487 LINE",
"136 487 LINE",
"512 -45 LINE",
"888 487 LINE"
);
},
{
closed = 1;
nodes = (
"-25 500 LINE",
"-25 475 LINE",
"327 475 LINE",
"327 500 LINE"
);
},
{
closed = 1;
nodes = (
"697 500 LINE",
"697 475 LINE",
"1049 475 LINE",
"1049 500 LINE"
);
}
);
width = 1024;
}
);
unicode = 0056;
},
{
color = 6;
glyphname = Y;
lastChange = "2015-02-15 01:18:43 +0000";
layers = (
{
background = {
paths = (
{
closed = 1;
nodes = (
"425 26 LINE",
"132 26 LINE",
"132 0 LINE",
"451 0 LINE",
"451 151 LINE",
"425 151 LINE"
);
},
{
closed = 1;
nodes = (
"748 0 LINE",
"748 26 LINE",
"437 26 LINE",
"437 0 LINE"
);
},
{
closed = 1;
nodes = (
"704 500 LINE",
"428 160 LINE",
"448 143 LINE",
"715 474 LINE",
"960 474 LINE",
"960 500 LINE"
);
},
{
closed = 1;
nodes = (
"173 500 LINE",
"-84 500 LINE",
"-84 474 LINE",
"161 474 LINE",
"429 143 LINE",
"449 160 LINE"
);
}
);
};
layerId = "B29C398E-974A-40D0-A0A0-00935056D4B4";
name = "Light Extended";
paths = (
{
closed = 1;
nodes = (
"718 0 LINE",
"718 25 LINE",
"162 25 LINE",
"162 0 LINE"
);
},
{
closed = 1;
nodes = (
"704 500 LINE",
"428 190 LINE",
"448 173 LINE",
"715 475 LINE",
"901 475 LINE",
"901 500 LINE"
);
},
{
closed = 1;
nodes = (
"173 500 LINE",
"-25 500 LINE",
"-25 475 LINE",
"161 475 LINE",
"429 173 LINE",
"449 190 LINE"
);
},
{
closed = 1;
nodes = (
"451 199 LINE",
"426 199 LINE",
"426 0 LINE",
"451 0 LINE"
);
}
);
width = 876;
}
);
unicode = 0059;
},
{
color = 6;
glyphname = A.alt;
lastChange = "2015-02-15 00:31:26 +0000";
layers = (
{
layerId = "B29C398E-974A-40D0-A0A0-00935056D4B4";
name = "Light Extended";
paths = (
{
closed = 1;
nodes = (
"507 538 LINE",
"136 13 LINE",
"167 13 LINE",
"511 500 LINE",
"855 13 LINE",
"888 13 LINE",
"517 538 LINE"
);
},
{
closed = 1;
nodes = (
"1049 0 LINE",
"1049 25 LINE",
"697 25 LINE",
"697 0 LINE"
);
},
{
closed = 1;
nodes = (
"327 0 LINE",
"327 25 LINE",
"-25 25 LINE",
"-25 0 LINE"
);
},
{
closed = 1;
nodes = (
"720 216 LINE",
"300 216 LINE",
"282 190 LINE",
"738 190 LINE"
);
},
{
closed = 1;
nodes = (
"708 513 LINE",
"708 538 LINE",
"316 538 LINE",
"316 513 LINE"
);
}
);
width = 1024;
}
);
},
{
color = 6;
glyphname = G.alt;
lastChange = "2015-02-14 23:28:29 +0000";
layers = (
{
background = {
paths = (
{
closed = 1;
nodes = (
"863 225 LINE",
"838 225 LINE",
"838 19 LINE",
"863 19 LINE"
);
},
{
closed = 1;
nodes = (
"818 385 LINE",
"841 387 LINE",
"738 489 OFFCURVE",
"621 538 OFFCURVE",
"466 538 CURVE SMOOTH",
"341 538 OFFCURVE",
"237 502 OFFCURVE",
"174 447 CURVE SMOOTH",
"111 392 OFFCURVE",
"80 320 OFFCURVE",
"80 249 CURVE SMOOTH",
"80 177 OFFCURVE",
"111 103 OFFCURVE",
"174 50 CURVE SMOOTH",
"236 -3 OFFCURVE",
"330 -38 OFFCURVE",
"454 -38 CURVE SMOOTH",
"604 -38 OFFCURVE",
"703 9 OFFCURVE",
"768 58 CURVE SMOOTH",
"832 107 OFFCURVE",
"850 167 OFFCURVE",
"850 215 CURVE",
"841 215 LINE",
"841 179 OFFCURVE",
"811 124 OFFCURVE",
"749 76 CURVE SMOOTH",
"690 30 OFFCURVE",
"597 -12 OFFCURVE",
"454 -12 CURVE SMOOTH",
"335 -12 OFFCURVE",
"247 21 OFFCURVE",
"191 69 CURVE SMOOTH",
"133 118 OFFCURVE",
"106 184 OFFCURVE",
"106 249 CURVE SMOOTH",
"106 313 OFFCURVE",
"133 378 OFFCURVE",
"191 428 CURVE SMOOTH",
"248 478 OFFCURVE",
"346 512 OFFCURVE",
"466 512 CURVE SMOOTH",
"590 512 OFFCURVE",
"721 483 OFFCURVE",
"843 352 CURVE",
"843 522 LINE",
"818 522 LINE"
);
},
{
closed = 1;
nodes = (
"863 235 LINE",
"453 235 LINE",
"453 209 LINE",
"863 209 LINE"
);
}
);
};
layerId = "B29C398E-974A-40D0-A0A0-00935056D4B4";
name = "Light Extended";
paths = (
{
closed = 1;
nodes = (
"262 538 OFFCURVE",
"80 433 OFFCURVE",
"80 250 CURVE",
"80 67 OFFCURVE",
"253 -38 OFFCURVE",
"457 -38 CURVE",
"647 -38 OFFCURVE",
"765 17 OFFCURVE",
"853 88 CURVE",
"828 103 LINE",
"753 39 OFFCURVE",
"634 -13 OFFCURVE",
"457 -13 CURVE",
"264 -13 OFFCURVE",
"106 86 OFFCURVE",
"106 250 CURVE",
"106 414 OFFCURVE",
"270 513 OFFCURVE",
"466 513 CURVE",
"600 513 OFFCURVE",
"743 473 OFFCURVE",
"851 383 CURVE",
"851 416 LINE",
"765 484 OFFCURVE",
"647 538 OFFCURVE",
"466 538 CURVE"
);
},
{
closed = 1;
nodes = (
"453 230 LINE",
"453 205 LINE",
"853 205 LINE",
"853 230 LINE"
);
},
{
closed = 1;
nodes = (
"853 215 LINE",
"828 215 LINE",
"828 103 LINE",
"853 88 LINE"
);
}
);
width = 938;
}
);
},
{
color = 6;
glyphname = Q.alt;
lastChange = "2015-02-14 23:53:07 +0000";
layers = (
{
background = {
paths = (
{
closed = 1;
nodes = (
"805 168 OFFCURVE",
"777 103 OFFCURVE",
"720 53 CURVE SMOOTH",
"662 3 OFFCURVE",
"575 -31 OFFCURVE",
"454 -31 CURVE",
"335 -31 OFFCURVE",
"247 2 OFFCURVE",
"191 50 CURVE SMOOTH",
"133 99 OFFCURVE",
"106 162 OFFCURVE",
"106 227 CURVE",
"106 291 OFFCURVE",
"133 356 OFFCURVE",
"191 406 CURVE SMOOTH",
"248 456 OFFCURVE",
"336 490 OFFCURVE",
"456 490 CURVE",
"576 490 OFFCURVE",
"663 456 OFFCURVE",
"720 408 CURVE SMOOTH",
"777 360 OFFCURVE",
"805 296 OFFCURVE",
"805 232 CURVE"
);
},
{
closed = 1;
nodes = (
"830 303 OFFCURVE",
"800 375 OFFCURVE",
"737 428 CURVE SMOOTH",
"674 481 OFFCURVE",
"581 516 OFFCURVE",
"456 516 CURVE",
"331 516 OFFCURVE",
"237 480 OFFCURVE",
"174 425 CURVE SMOOTH",
"111 370 OFFCURVE",
"80 298 OFFCURVE",
"80 227 CURVE",
"80 155 OFFCURVE",
"111 84 OFFCURVE",
"174 31 CURVE SMOOTH",
"236 -22 OFFCURVE",
"330 -57 OFFCURVE",
"454 -57 CURVE",
"580 -57 OFFCURVE",
"674 -21 OFFCURVE",
"737 34 CURVE SMOOTH",
"800 88 OFFCURVE",
"830 160 OFFCURVE",
"830 232 CURVE"
);
},
{
closed = 1;
nodes = (
"173 216 LINE SMOOTH",
"339 216 OFFCURVE",
"427 148 OFFCURVE",
"523 47 CURVE SMOOTH",
"681 -119 OFFCURVE",
"798 -227 OFFCURVE",
"1060 -227 CURVE SMOOTH",
"1211 -227 OFFCURVE",
"1339 -186 OFFCURVE",
"1434 -97 CURVE",
"1416 -78 LINE",
"1327 -161 OFFCURVE",
"1207 -201 OFFCURVE",
"1060 -201 CURVE SMOOTH",
"863 -201 OFFCURVE",
"728 -125 OFFCURVE",
"620 -14 CURVE SMOOTH",
"448 162 OFFCURVE",
"383 242 OFFCURVE",
"173 242 CURVE SMOOTH",
"94 242 LINE",
"94 216 LINE"
);
}
);
};
layerId = "B29C398E-974A-40D0-A0A0-00935056D4B4";
name = "Light Extended";
paths = (
{
closed = 1;
nodes = (
"94 271 LINE",
"94 246 LINE",
"173 246 LINE SMOOTH",
"339 246 OFFCURVE",
"423 185 OFFCURVE",
"600 6 CURVE SMOOTH",
"767 -163 OFFCURVE",
"916 -267 OFFCURVE",
"1135 -267 CURVE SMOOTH",
"1306 -267 OFFCURVE",
"1429 -206 OFFCURVE",
"1534 -87 CURVE",
"1517 -69 LINE",
"1420 -179 OFFCURVE",
"1302 -242 OFFCURVE",
"1135 -242 CURVE SMOOTH",
"937 -242 OFFCURVE",
"780 -137 OFFCURVE",
"636 7 CURVE SMOOTH",
"460 183 OFFCURVE",
"383 271 OFFCURVE",
"173 271 CURVE SMOOTH"
);
},
{
closed = 1;
nodes = (
"257 538 OFFCURVE",
"80 433 OFFCURVE",
"80 250 CURVE",
"80 67 OFFCURVE",
"257 -38 OFFCURVE",
"471 -38 CURVE",
"685 -38 OFFCURVE",
"862 67 OFFCURVE",
"862 250 CURVE",
"862 433 OFFCURVE",
"685 538 OFFCURVE",
"471 538 CURVE"
);
},
{
closed = 1;
nodes = (
"674 513 OFFCURVE",
"836 414 OFFCURVE",
"836 250 CURVE",
"836 86 OFFCURVE",
"674 -13 OFFCURVE",
"471 -13 CURVE",
"268 -13 OFFCURVE",
"106 86 OFFCURVE",
"106 250 CURVE",
"106 414 OFFCURVE",
"268 513 OFFCURVE",
"471 513 CURVE"
);
}
);
width = 909;
}
);
},
{
color = 6;
glyphname = R.alt;
lastChange = "2015-02-15 01:14:52 +0000";
layers = (
{
background = {
paths = (
{
closed = 1;
nodes = (
"492 212 LINE SMOOTH",
"515 212 OFFCURVE",
"534 208 OFFCURVE",
"550 202 CURVE SMOOTH",
"578 190 OFFCURVE",
"598 172 OFFCURVE",
"617 147 CURVE SMOOTH",
"646 111 OFFCURVE",
"669 64 OFFCURVE",
"704 25 CURVE SMOOTH",
"722 6 OFFCURVE",
"743 -12 OFFCURVE",
"770 -24 CURVE SMOOTH",
"795 -36 OFFCURVE",
"827 -43 OFFCURVE",
"865 -43 CURVE SMOOTH",
"901 -43 OFFCURVE",
"932 -36 OFFCURVE",
"958 -22 CURVE SMOOTH",
"996 -1 OFFCURVE",
"1024 32 OFFCURVE",
"1041 68 CURVE SMOOTH",
"1059 105 OFFCURVE",
"1066 146 OFFCURVE",
"1066 183 CURVE",
"1041 183 LINE",
"1041 138 OFFCURVE",
"1028 87 OFFCURVE",
"1000 48 CURVE SMOOTH",
"986 29 OFFCURVE",
"968 13 OFFCURVE",
"946 1 CURVE SMOOTH",
"924 -11 OFFCURVE",
"898 -18 OFFCURVE",
"865 -18 CURVE SMOOTH",
"812 -18 OFFCURVE",
"776 -3 OFFCURVE",
"748 19 CURVE SMOOTH",
"726 36 OFFCURVE",
"709 57 OFFCURVE",
"693 81 CURVE SMOOTH",
"669 115 OFFCURVE",
"648 153 OFFCURVE",
"619 185 CURVE SMOOTH",
"604 200 OFFCURVE",
"587 214 OFFCURVE",
"566 223 CURVE SMOOTH",
"545 232 OFFCURVE",
"521 237 OFFCURVE",
"492 237 CURVE SMOOTH",
"413 237 LINE",
"413 212 LINE"
);
},
{
closed = 1;
nodes = (
"301 14 LINE",
"301 487 LINE",
"276 487 LINE",
"276 14 LINE"
);
},
{
closed = 1;
nodes = (
"497 1 LINE",
"497 27 LINE",
"87 27 LINE",
"87 0 LINE"
);
},
{
closed = 1;
nodes = (
"289 212 OFFCURVE",
"296 212 OFFCURVE",
"309 212 CURVE SMOOTH",
"398 212 OFFCURVE",
"758 212 OFFCURVE",
"786 212 CURVE SMOOTH",
"831 212 OFFCURVE",
"872 225 OFFCURVE",
"903 250 CURVE SMOOTH",
"918 263 OFFCURVE",
"931 277 OFFCURVE",
"939 294 CURVE SMOOTH",
"948 312 OFFCURVE",
"953 340 OFFCURVE",
"953 361 CURVE SMOOTH",
"953 380 OFFCURVE",
"948 399 OFFCURVE",
"939 415 CURVE SMOOTH",
"926 439 OFFCURVE",
"905 463 OFFCURVE",
"878 477 CURVE SMOOTH",
"851 491 OFFCURVE",
"820 500 OFFCURVE",
"786 500 CURVE SMOOTH",
"770 500 OFFCURVE",
"592 500 OFFCURVE",
"418 500 CURVE SMOOTH",
"331 500 OFFCURVE",
"211 500 OFFCURVE",
"147 500 CURVE SMOOTH",
"119 500 OFFCURVE",
"135 500 OFFCURVE",
"116 500 CURVE",
"87 500 LINE",
"87 474 LINE",
"87 474 OFFCURVE",
"753 474 OFFCURVE",
"786 474 CURVE SMOOTH",
"826 474 OFFCURVE",
"861 461 OFFCURVE",
"886 441 CURVE SMOOTH",
"899 431 OFFCURVE",
"910 415 OFFCURVE",
"917 403 CURVE SMOOTH",
"923 389 OFFCURVE",
"927 376 OFFCURVE",
"927 361 CURVE SMOOTH",
"927 345 OFFCURVE",
"923 319 OFFCURVE",
"916 306 CURVE SMOOTH",
"906 286 OFFCURVE",
"889 269 OFFCURVE",
"865 256 CURVE SMOOTH",
"843 244 OFFCURVE",
"816 237 OFFCURVE",
"786 237 CURVE SMOOTH",
"753 237 OFFCURVE",
"289 237 OFFCURVE",
"289 237 CURVE",
"289 212 LINE"
);
}
);
};
layerId = "B29C398E-974A-40D0-A0A0-00935056D4B4";
name = "Light Extended";
paths = (
{
closed = 1;
nodes = (
"491 213 LINE SMOOTH",
"583 213 OFFCURVE",
"622 157 OFFCURVE",
"672 84 CURVE SMOOTH",
"722 11 OFFCURVE",
"775 -38 OFFCURVE",
"876 -38 CURVE SMOOTH",
"1001 -38 OFFCURVE",
"1066 65 OFFCURVE",
"1066 183 CURVE",
"1041 183 LINE",
"1041 76 OFFCURVE",
"981 -13 OFFCURVE",
"876 -13 CURVE SMOOTH",
"794 -13 OFFCURVE",
"744 30 OFFCURVE",
"695 101 CURVE SMOOTH",
"634 190 OFFCURVE",
"590 238 OFFCURVE",
"475 238 CURVE SMOOTH",
"393 238 LINE",
"393 213 LINE"
);
},
{
closed = 1;
nodes = (
"301 14 LINE",
"301 487 LINE",
"276 487 LINE",
"276 14 LINE"
);
},
{
closed = 1;
nodes = (
"497 1 LINE",
"497 26 LINE",
"90 25 LINE",
"90 0 LINE"
);
},
{
closed = 1;
nodes = (
"785 213 LINE",
"892 213 OFFCURVE",
"952 284 OFFCURVE",
"952 355 CURVE SMOOTH",
"952 436 OFFCURVE",
"890 500 OFFCURVE",
"785 500 CURVE",
"90 500 LINE",
"90 475 LINE",
"785 475 LINE",
"876 475 OFFCURVE",
"926 418 OFFCURVE",
"926 355 CURVE SMOOTH",
"926 294 OFFCURVE",
"873 238 OFFCURVE",
"785 238 CURVE",
"296 238 LINE",
"296 213 LINE"
);
}
);
width = 1116;
}
);
},
{
glyphname = original;
lastChange = "2015-02-12 04:30:39 +0000";
layers = (
{
layerId = "B29C398E-974A-40D0-A0A0-00935056D4B4";
name = "Light Extended";
paths = (
{
closed = 1;
nodes = (
"0 700 LINE",
"0 700 LINE",
"0 700 LINE",
"0 700 LINE",
"0 700 LINE",
"0 700 LINE"
);
},
{
closed = 1;
nodes = (
"0 700 LINE",
"0 700 LINE",
"0 700 LINE",
"0 700 LINE"
);
},
{
closed = 1;
nodes = (
"0 700 LINE",
"0 700 LINE",
"0 700 LINE",
"0 700 LINE"
);
},
{
closed = 1;
nodes = (
"0 700 LINE",
"0 700 LINE",
"0 700 LINE",
"0 700 LINE"
);
},
{
closed = 1;
nodes = (
"0 700 LINE",
"0 700 LINE",
"0 700 LINE",
"0 700 LINE"
);
},
{
closed = 1;
nodes = (
"0 700 LINE",
"0 700 LINE",
"0 700 LINE",
"0 700 LINE"
);
},
{
closed = 1;
nodes = (
"0 700 LINE",
"0 700 LINE",
"0 700 LINE",
"0 700 LINE",
"0 700 LINE",
"0 700 LINE",
"0 700 LINE",
"0 700 LINE",
"0 700 LINE",
"0 700 LINE"
);
},
{
closed = 1;
nodes = (
"0 700 LINE",
"0 700 LINE",
"0 700 LINE",
"0 700 LINE",
"0 700 LINE",
"0 700 LINE",
"0 700 LINE",
"0 700 LINE"
);
},
{
closed = 1;
nodes = (
"0 700 LINE",
"0 700 LINE",
"0 700 LINE",
"0 700 LINE"
);
}
);
width = 0;
}
);
},
